<mxfile host="app.diagrams.net" modified="2021-04-27T18:24:00.888Z" agent="5.0 (X11; Linux x86_64) AppleWebKit/537.36 (KHTML, like Gecko) Chrome/89.0.4389.82 Safari/537.36" etag="kiqhUMRTG_7OGDrx7Wzk" version="14.6.6" type="github">
  <diagram id="cHTkirek6MycF9Q-MXVf" name="Page-1">
    <mxGraphModel dx="934" dy="1614" grid="1" gridSize="10" guides="1" tooltips="1" connect="1" arrows="1" fold="1" page="1" pageScale="1" pageWidth="850" pageHeight="1100" math="0" shadow="0">
      <root>
        <mxCell id="0" />
        <mxCell id="1" parent="0" />
        <mxCell id="hMvDqQn-yTiB0dJydoLx-1" value="" style="whiteSpace=wrap;html=1;aspect=fixed;" vertex="1" parent="1">
          <mxGeometry x="70" y="-110" width="700" height="700" as="geometry" />
        </mxCell>
        <mxCell id="hMvDqQn-yTiB0dJydoLx-2" value="Seq2Seq model" style="whiteSpace=wrap;html=1;aspect=fixed;strokeWidth=3;fillColor=#f8cecc;strokeColor=#b85450;" vertex="1" parent="1">
          <mxGeometry x="557.5" y="60" width="120" height="120" as="geometry" />
        </mxCell>
        <mxCell id="hMvDqQn-yTiB0dJydoLx-3" value="Dataset" style="whiteSpace=wrap;html=1;aspect=fixed;strokeWidth=3;fillColor=#f5f5f5;strokeColor=#666666;fontColor=#333333;" vertex="1" parent="1">
          <mxGeometry x="210" y="60" width="120" height="120" as="geometry" />
        </mxCell>
        <mxCell id="hMvDqQn-yTiB0dJydoLx-4" value="&lt;font style=&quot;font-size: 18px&quot;&gt;Agent 1&lt;/font&gt;" style="text;html=1;strokeColor=none;fillColor=none;align=center;verticalAlign=middle;whiteSpace=wrap;rounded=0;" vertex="1" parent="1">
          <mxGeometry x="235" y="20" width="70" height="20" as="geometry" />
        </mxCell>
        <mxCell id="hMvDqQn-yTiB0dJydoLx-5" value="&lt;font style=&quot;font-size: 18px&quot;&gt;Agent 2&lt;/font&gt;" style="text;html=1;strokeColor=none;fillColor=none;align=center;verticalAlign=middle;whiteSpace=wrap;rounded=0;" vertex="1" parent="1">
          <mxGeometry x="582.5" y="20" width="70" height="20" as="geometry" />
        </mxCell>
        <mxCell id="hMvDqQn-yTiB0dJydoLx-6" value="&lt;b&gt;&lt;font style=&quot;font-size: 25px&quot;&gt;ParlAI World&lt;/font&gt;&lt;/b&gt;" style="text;html=1;strokeColor=none;fillColor=none;align=center;verticalAlign=middle;whiteSpace=wrap;rounded=0;" vertex="1" parent="1">
          <mxGeometry x="340" y="-10" width="190" height="20" as="geometry" />
        </mxCell>
        <mxCell id="hMvDqQn-yTiB0dJydoLx-8" value="" style="endArrow=classic;html=1;entryX=0;entryY=0.5;entryDx=0;entryDy=0;" edge="1" parent="1" source="hMvDqQn-yTiB0dJydoLx-3" target="hMvDqQn-yTiB0dJydoLx-2">
          <mxGeometry width="50" height="50" relative="1" as="geometry">
            <mxPoint x="355" y="250" as="sourcePoint" />
            <mxPoint x="405" y="200" as="targetPoint" />
          </mxGeometry>
        </mxCell>
        <mxCell id="hMvDqQn-yTiB0dJydoLx-9" value="" style="endArrow=classic;html=1;exitX=0;exitY=0.75;exitDx=0;exitDy=0;entryX=1;entryY=0.75;entryDx=0;entryDy=0;" edge="1" parent="1" source="hMvDqQn-yTiB0dJydoLx-2" target="hMvDqQn-yTiB0dJydoLx-3">
          <mxGeometry width="50" height="50" relative="1" as="geometry">
            <mxPoint x="395" y="290" as="sourcePoint" />
            <mxPoint x="445" y="240" as="targetPoint" />
          </mxGeometry>
        </mxCell>
        <mxCell id="hMvDqQn-yTiB0dJydoLx-10" value="Text with labels" style="text;html=1;strokeColor=none;fillColor=none;align=center;verticalAlign=middle;whiteSpace=wrap;rounded=0;" vertex="1" parent="1">
          <mxGeometry x="370" y="100" width="130" height="20" as="geometry" />
        </mxCell>
        <mxCell id="hMvDqQn-yTiB0dJydoLx-11" value="Predict the label and update the loss(transfer learning)" style="text;html=1;strokeColor=none;fillColor=none;align=center;verticalAlign=middle;whiteSpace=wrap;rounded=0;" vertex="1" parent="1">
          <mxGeometry x="370" y="160" width="130" height="20" as="geometry" />
        </mxCell>
        <mxCell id="hMvDqQn-yTiB0dJydoLx-17" value="CORTX S3" style="shape=cylinder3;whiteSpace=wrap;html=1;boundedLbl=1;backgroundOutline=1;size=15;strokeWidth=3;fillColor=#fff2cc;strokeColor=#d6b656;gradientColor=#ffd966;" vertex="1" parent="1">
          <mxGeometry x="577.5" y="340" width="80" height="130" as="geometry" />
        </mxCell>
        <mxCell id="hMvDqQn-yTiB0dJydoLx-20" value="" style="endArrow=classic;html=1;entryX=0.5;entryY=0;entryDx=0;entryDy=0;entryPerimeter=0;exitX=0.5;exitY=1;exitDx=0;exitDy=0;" edge="1" parent="1" source="hMvDqQn-yTiB0dJydoLx-2" target="hMvDqQn-yTiB0dJydoLx-17">
          <mxGeometry width="50" height="50" relative="1" as="geometry">
            <mxPoint x="620" y="200" as="sourcePoint" />
            <mxPoint x="450" y="140" as="targetPoint" />
          </mxGeometry>
        </mxCell>
        <mxCell id="hMvDqQn-yTiB0dJydoLx-21" value="Flask web app" style="whiteSpace=wrap;html=1;aspect=fixed;strokeWidth=3;fillColor=#cdeb8b;strokeColor=#36393d;" vertex="1" parent="1">
          <mxGeometry x="210" y="350" width="110" height="110" as="geometry" />
        </mxCell>
        <mxCell id="hMvDqQn-yTiB0dJydoLx-22" value="" style="endArrow=classic;html=1;entryX=1;entryY=0.5;entryDx=0;entryDy=0;exitX=0;exitY=0.5;exitDx=0;exitDy=0;exitPerimeter=0;" edge="1" parent="1" source="hMvDqQn-yTiB0dJydoLx-17" target="hMvDqQn-yTiB0dJydoLx-21">
          <mxGeometry width="50" height="50" relative="1" as="geometry">
            <mxPoint x="400" y="230" as="sourcePoint" />
            <mxPoint x="450" y="180" as="targetPoint" />
          </mxGeometry>
        </mxCell>
        <mxCell id="hMvDqQn-yTiB0dJydoLx-23" value="Uploading the model to S3" style="text;html=1;strokeColor=none;fillColor=none;align=center;verticalAlign=middle;whiteSpace=wrap;rounded=0;" vertex="1" parent="1">
          <mxGeometry x="460" y="250" width="150" height="20" as="geometry" />
        </mxCell>
        <mxCell id="hMvDqQn-yTiB0dJydoLx-24" value="Downloading the model from S3 to system" style="text;html=1;strokeColor=none;fillColor=none;align=center;verticalAlign=middle;whiteSpace=wrap;rounded=0;" vertex="1" parent="1">
          <mxGeometry x="330" y="380" width="240" height="20" as="geometry" />
        </mxCell>
      </root>
    </mxGraphModel>
  </diagram>
</mxfile>
